<svg xmlns="http://www.w3.org/2000/svg" width="1600" height="900" viewBox="0 0 1600 900">
  <rect width="1600" height="900" fill="#f4f1e8"/>
  <circle cx="1370" cy="120" r="310" fill="#dce8d5"/>
  <circle cx="170" cy="820" r="260" fill="#e8dcc5"/>
  <g transform="translate(160 150)">
    <rect width="86" height="86" rx="24" fill="#183c2d"/>
    <path d="M24 57c25-2 41-16 45-38-23 3-41 17-45 38Zm17-2c-2 12 1 22 10 30" fill="none" stroke="#d9efce" stroke-width="7" stroke-linecap="round"/>
    <text x="112" y="60" font-family="Arial, sans-serif" font-size="54" font-weight="700" fill="#183c2d">EcoTraceIT</text>
  </g>
  <text x="160" y="390" font-family="Arial, sans-serif" font-size="78" font-weight="700" fill="#183c2d">Demo per la revisione Shopify</text>
  <text x="160" y="480" font-family="Arial, sans-serif" font-size="34" fill="#3f5b4e">Dashboard, report ambientali, impostazioni e checkout Carbon Neutral</text>
  <g font-family="Arial, sans-serif" font-size="27" fill="#183c2d">
    <rect x="160" y="575" width="310" height="74" rx="37" fill="#dce8d5"/><text x="210" y="622">1 · Dashboard</text>
    <rect x="500" y="575" width="270" height="74" rx="37" fill="#dce8d5"/><text x="550" y="622">2 · Report</text>
    <rect x="800" y="575" width="340" height="74" rx="37" fill="#dce8d5"/><text x="850" y="622">3 · Impostazioni</text>
    <rect x="1170" y="575" width="270" height="74" rx="37" fill="#dce8d5"/><text x="1220" y="622">4 · Checkout</text>
  </g>
  <text x="160" y="790" font-family="Arial, sans-serif" font-size="24" fill="#597064">Ambiente di sviluppo Shopify · Nessun account EcoTraceIT separato richiesto</text>
</svg>
